G04 EAGLE Gerber RS-274X export*
G75*
%MOMM*%
%FSLAX34Y34*%
%LPD*%
%INTop Copper*%
%IPPOS*%
%AMOC8*
5,1,8,0,0,1.08239X$1,22.5*%
G01*
%ADD10C,1.879600*%
%ADD11R,1.879600X1.879600*%
%ADD12C,0.304800*%
%ADD13C,1.206400*%


D10*
X495300Y241300D03*
X469900Y241300D03*
X444500Y241300D03*
X368300Y406400D03*
X393700Y406400D03*
X368300Y381000D03*
X393700Y381000D03*
X38100Y63500D03*
X38100Y88900D03*
X38100Y114300D03*
X38100Y139700D03*
X38100Y165100D03*
X38100Y190500D03*
X38100Y215900D03*
X190500Y63500D03*
X190500Y88900D03*
X190500Y114300D03*
X190500Y139700D03*
X190500Y165100D03*
X190500Y190500D03*
X190500Y215900D03*
X254000Y304800D03*
X177800Y304800D03*
X177800Y279400D03*
X254000Y279400D03*
X177800Y330200D03*
X254000Y330200D03*
X38100Y342900D03*
X38100Y419100D03*
X63500Y342900D03*
X63500Y419100D03*
X50800Y279400D03*
X50800Y304800D03*
X127000Y279400D03*
X127000Y304800D03*
X254000Y355600D03*
X177800Y355600D03*
X254000Y381000D03*
X177800Y381000D03*
X254000Y406400D03*
X177800Y406400D03*
X101600Y355600D03*
X114300Y374650D03*
X127000Y355600D03*
X114300Y419100D03*
X127000Y438150D03*
X139700Y419100D03*
D11*
X368300Y317500D03*
D10*
X342900Y317500D03*
X317500Y317500D03*
X381000Y88900D03*
X381000Y114300D03*
X381000Y139700D03*
X381000Y165100D03*
X381000Y190500D03*
X393700Y355600D03*
X368300Y355600D03*
X292100Y406400D03*
X292100Y381000D03*
X292100Y355600D03*
X508000Y279400D03*
X482600Y279400D03*
X457200Y279400D03*
X431800Y279400D03*
X317500Y355600D03*
X317500Y381000D03*
X317500Y406400D03*
X381000Y279400D03*
X304800Y279400D03*
D12*
X38100Y241300D02*
X38100Y215900D01*
D13*
X38100Y241300D03*
X152400Y304800D03*
D12*
X177800Y304800D01*
X127000Y228600D02*
X38100Y139700D01*
X127000Y228600D02*
X127000Y279400D01*
X203200Y279400D02*
X38100Y114300D01*
X203200Y279400D02*
X254000Y279400D01*
X88900Y393700D02*
X63500Y419100D01*
X76200Y381000D02*
X101600Y355600D01*
X76200Y381000D02*
X88900Y393700D01*
X114300Y419100D01*
X292100Y381000D02*
X317500Y406400D01*
X511175Y231775D02*
X393700Y114300D01*
X381000Y114300D01*
X511175Y231775D02*
X511175Y263525D01*
X498475Y263525D01*
X495300Y266700D01*
X190500Y190500D02*
X174625Y174625D01*
X174625Y47625D01*
X314325Y47625D01*
X381000Y114300D01*
X469900Y241300D02*
X495300Y266700D01*
X292100Y381000D02*
X276225Y396875D01*
X276225Y454025D01*
X98425Y454025D02*
X63500Y419100D01*
X478393Y279400D02*
X482600Y279400D01*
X482600Y254000D01*
X469900Y241300D01*
X406400Y355600D02*
X393700Y355600D01*
X406400Y355600D02*
X482600Y279400D01*
X63500Y419100D02*
X38100Y419100D01*
X98425Y454025D02*
X276225Y454025D01*
X430720Y411213D02*
X430720Y396827D01*
X393700Y359807D02*
X393700Y355600D01*
X393700Y359807D02*
X430720Y396827D01*
X387908Y454025D02*
X276225Y454025D01*
X387908Y454025D02*
X430720Y411213D01*
X254000Y381000D02*
X254000Y355600D01*
X254000Y381000D02*
X254000Y406400D01*
X352425Y346075D02*
X355600Y342900D01*
X355600Y330200D01*
X368300Y317500D01*
X352425Y346075D02*
X352425Y368300D01*
X355600Y368300D01*
X254000Y381000D02*
X254000Y433006D01*
D13*
X254000Y433006D03*
X355600Y431800D03*
D12*
X353314Y412607D02*
X353314Y400193D01*
X355600Y414893D02*
X355600Y431800D01*
X355600Y414893D02*
X353314Y412607D01*
X368300Y385207D02*
X355600Y368300D01*
X368300Y385207D02*
X353314Y400193D01*
X177800Y381000D02*
X177800Y355600D01*
X177800Y381000D02*
X177800Y406400D01*
D13*
X329418Y339949D03*
D12*
X342900Y326467D01*
X342900Y317500D01*
X194755Y423355D02*
X177800Y406400D01*
X194755Y423355D02*
X203200Y423355D01*
D13*
X203200Y423355D03*
D12*
X127000Y355600D02*
X152400Y330200D01*
X177800Y330200D01*
X139700Y384175D02*
X139700Y419100D01*
X139700Y384175D02*
X142875Y381000D01*
X142875Y355600D01*
X127000Y355600D01*
X368300Y406400D02*
X393700Y381000D01*
X177800Y330200D02*
X168528Y320928D01*
X152400Y320928D01*
D13*
X152400Y320928D03*
X381000Y431800D03*
D12*
X381000Y419100D01*
X368300Y406400D01*
X203200Y304800D02*
X177800Y279400D01*
X215900Y304800D02*
X254000Y304800D01*
X215900Y304800D02*
X203200Y304800D01*
X130175Y434975D02*
X127000Y438150D01*
X130175Y434975D02*
X215900Y434975D01*
X215900Y304800D01*
D13*
X88900Y419100D03*
D12*
X122936Y434086D02*
X127000Y438150D01*
X93107Y419100D02*
X88900Y419100D01*
X108093Y434086D02*
X122936Y434086D01*
X108093Y434086D02*
X93107Y419100D01*
D13*
X114300Y393700D03*
D12*
X114300Y374650D01*
X431800Y254000D02*
X444500Y241300D01*
X431800Y254000D02*
X419100Y254000D01*
D13*
X419100Y254000D03*
X419100Y406400D03*
D12*
X393700Y406400D01*
D13*
X279400Y330200D03*
D12*
X254000Y330200D01*
X50800Y333375D02*
X50800Y304800D01*
X50800Y333375D02*
X47625Y333375D01*
X38100Y342900D01*
X63500Y342900D02*
X101600Y304800D01*
X127000Y304800D01*
X53975Y206375D02*
X38100Y190500D01*
X53975Y206375D02*
X53975Y279400D01*
X50800Y279400D01*
X190500Y165100D02*
X254000Y228600D01*
X276225Y228600D01*
X320675Y273050D01*
X320675Y301625D01*
X311150Y301625D01*
X301625Y311150D01*
X301625Y342900D01*
X304800Y342900D01*
X317500Y355600D01*
X292100Y406400D02*
X292100Y427545D01*
X287845Y431800D01*
D13*
X287845Y431800D03*
X340805Y351370D03*
D12*
X334430Y351370D01*
X334231Y351569D01*
X321531Y351569D02*
X317500Y355600D01*
X321531Y351569D02*
X334231Y351569D01*
X203200Y254000D02*
X38100Y88900D01*
X203200Y254000D02*
X250825Y254000D01*
X292100Y295275D01*
X292100Y355600D01*
X381000Y215900D02*
X381000Y190500D01*
D13*
X381000Y215900D03*
X391833Y328333D03*
D12*
X368300Y351867D02*
X368300Y355600D01*
X368300Y351867D02*
X391833Y328333D01*
X396875Y295275D02*
X381000Y279400D01*
X396875Y295275D02*
X441325Y295275D01*
X495300Y241300D02*
X479425Y225425D01*
X400050Y225425D01*
X381000Y244475D01*
X381000Y279400D01*
X355600Y279400D02*
X317500Y317500D01*
X355600Y279400D02*
X381000Y279400D01*
X441325Y295275D02*
X457200Y279400D01*
D13*
X394784Y265616D03*
D12*
X418020Y265620D02*
X431800Y279400D01*
X418020Y265620D02*
X401587Y265620D01*
X401582Y265616D01*
X394784Y265616D01*
D13*
X339472Y431495D03*
D12*
X339472Y402972D01*
X317500Y381000D01*
X520700Y215900D02*
X393700Y88900D01*
X381000Y88900D01*
X520700Y215900D02*
X520700Y279400D01*
X508000Y279400D01*
X212725Y238125D02*
X190500Y215900D01*
X212725Y238125D02*
X263525Y238125D01*
X304800Y279400D01*
M02*
