G04 EAGLE Gerber RS-274X export*
G75*
%MOMM*%
%FSLAX34Y34*%
%LPD*%
%INSilkscreen Bottom*%
%IPPOS*%
%AMOC8*
5,1,8,0,0,1.08239X$1,22.5*%
G01*
%ADD10C,0.203200*%
%ADD11C,0.127000*%


D10*
X69850Y317500D02*
X31750Y317500D01*
X107950Y317500D02*
X146050Y317500D01*
X393700Y171450D02*
X393700Y158750D01*
X393700Y171450D02*
X387350Y177800D01*
X374650Y177800D02*
X368300Y171450D01*
X387350Y177800D02*
X393700Y184150D01*
X393700Y196850D01*
X387350Y203200D01*
X374650Y203200D02*
X368300Y196850D01*
X368300Y184150D01*
X374650Y177800D01*
X393700Y133350D02*
X387350Y127000D01*
X393700Y133350D02*
X393700Y146050D01*
X387350Y152400D01*
X374650Y152400D02*
X368300Y146050D01*
X368300Y133350D01*
X374650Y127000D01*
X387350Y152400D02*
X393700Y158750D01*
X374650Y152400D02*
X368300Y158750D01*
X368300Y171450D01*
X393700Y95250D02*
X393700Y82550D01*
X393700Y95250D02*
X387350Y101600D01*
X374650Y101600D02*
X368300Y95250D01*
X387350Y101600D02*
X393700Y107950D01*
X393700Y120650D01*
X387350Y127000D01*
X374650Y127000D02*
X368300Y120650D01*
X368300Y107950D01*
X374650Y101600D01*
X374650Y76200D02*
X387350Y76200D01*
X393700Y82550D01*
X374650Y76200D02*
X368300Y82550D01*
X368300Y95250D01*
X374650Y203200D02*
X387350Y203200D01*
D11*
X395605Y78980D02*
X395605Y77907D01*
X395607Y77842D01*
X395613Y77778D01*
X395623Y77714D01*
X395636Y77650D01*
X395654Y77588D01*
X395675Y77527D01*
X395699Y77467D01*
X395728Y77409D01*
X395760Y77352D01*
X395795Y77298D01*
X395833Y77246D01*
X395875Y77196D01*
X395919Y77149D01*
X395966Y77105D01*
X396016Y77063D01*
X396068Y77025D01*
X396122Y76990D01*
X396179Y76958D01*
X396237Y76929D01*
X396297Y76905D01*
X396358Y76884D01*
X396420Y76866D01*
X396484Y76853D01*
X396548Y76843D01*
X396612Y76837D01*
X396677Y76835D01*
X399359Y76835D01*
X399424Y76837D01*
X399488Y76843D01*
X399552Y76853D01*
X399616Y76866D01*
X399678Y76884D01*
X399739Y76905D01*
X399799Y76929D01*
X399857Y76958D01*
X399914Y76990D01*
X399968Y77025D01*
X400020Y77063D01*
X400070Y77105D01*
X400117Y77149D01*
X400161Y77196D01*
X400203Y77246D01*
X400241Y77298D01*
X400276Y77352D01*
X400308Y77409D01*
X400337Y77467D01*
X400361Y77527D01*
X400382Y77588D01*
X400400Y77650D01*
X400413Y77714D01*
X400423Y77778D01*
X400429Y77842D01*
X400431Y77907D01*
X400431Y78980D01*
X400431Y81619D02*
X395605Y81619D01*
X398286Y81619D02*
X398286Y84300D01*
X400431Y84300D02*
X395605Y84300D01*
X395605Y87020D02*
X400431Y88628D01*
X395605Y90237D01*
X396812Y89835D02*
X396812Y87422D01*
X395605Y93021D02*
X400431Y93021D01*
X400431Y94361D01*
X400429Y94432D01*
X400423Y94504D01*
X400414Y94574D01*
X400401Y94644D01*
X400384Y94714D01*
X400363Y94782D01*
X400339Y94849D01*
X400311Y94915D01*
X400280Y94979D01*
X400245Y95042D01*
X400207Y95102D01*
X400166Y95161D01*
X400122Y95217D01*
X400075Y95271D01*
X400026Y95322D01*
X399973Y95370D01*
X399918Y95416D01*
X399861Y95458D01*
X399801Y95498D01*
X399740Y95534D01*
X399676Y95567D01*
X399611Y95596D01*
X399545Y95622D01*
X399477Y95645D01*
X399408Y95664D01*
X399338Y95679D01*
X399268Y95690D01*
X399197Y95698D01*
X399126Y95702D01*
X399054Y95702D01*
X398983Y95698D01*
X398912Y95690D01*
X398842Y95679D01*
X398772Y95664D01*
X398703Y95645D01*
X398635Y95622D01*
X398569Y95596D01*
X398504Y95567D01*
X398440Y95534D01*
X398379Y95498D01*
X398319Y95458D01*
X398262Y95416D01*
X398207Y95370D01*
X398154Y95322D01*
X398105Y95271D01*
X398058Y95217D01*
X398014Y95161D01*
X397973Y95102D01*
X397935Y95042D01*
X397900Y94979D01*
X397869Y94915D01*
X397841Y94849D01*
X397817Y94782D01*
X397796Y94714D01*
X397779Y94644D01*
X397766Y94574D01*
X397757Y94504D01*
X397751Y94432D01*
X397749Y94361D01*
X397750Y94361D02*
X397750Y93021D01*
X397750Y94629D02*
X395605Y95702D01*
X398286Y100503D02*
X398286Y101307D01*
X395605Y101307D01*
X395605Y99699D01*
X395607Y99634D01*
X395613Y99570D01*
X395623Y99506D01*
X395636Y99442D01*
X395654Y99380D01*
X395675Y99319D01*
X395699Y99259D01*
X395728Y99201D01*
X395760Y99144D01*
X395795Y99090D01*
X395833Y99038D01*
X395875Y98988D01*
X395919Y98941D01*
X395966Y98897D01*
X396016Y98855D01*
X396068Y98817D01*
X396122Y98782D01*
X396179Y98750D01*
X396237Y98721D01*
X396297Y98697D01*
X396358Y98676D01*
X396420Y98658D01*
X396484Y98645D01*
X396548Y98635D01*
X396612Y98629D01*
X396677Y98627D01*
X396677Y98626D02*
X399359Y98626D01*
X399359Y98627D02*
X399424Y98629D01*
X399488Y98635D01*
X399552Y98645D01*
X399616Y98658D01*
X399678Y98676D01*
X399739Y98697D01*
X399799Y98721D01*
X399857Y98750D01*
X399914Y98782D01*
X399968Y98817D01*
X400020Y98855D01*
X400070Y98897D01*
X400117Y98941D01*
X400161Y98988D01*
X400203Y99038D01*
X400241Y99090D01*
X400276Y99144D01*
X400308Y99201D01*
X400337Y99259D01*
X400361Y99319D01*
X400382Y99380D01*
X400400Y99442D01*
X400413Y99506D01*
X400423Y99570D01*
X400429Y99634D01*
X400431Y99699D01*
X400431Y101307D01*
X395605Y104498D02*
X395605Y106643D01*
X395605Y104498D02*
X400431Y104498D01*
X400431Y106643D01*
X398286Y106107D02*
X398286Y104498D01*
X400431Y109297D02*
X395605Y109297D01*
X400431Y109297D02*
X400431Y110638D01*
X400429Y110709D01*
X400423Y110781D01*
X400414Y110851D01*
X400401Y110921D01*
X400384Y110991D01*
X400363Y111059D01*
X400339Y111126D01*
X400311Y111192D01*
X400280Y111256D01*
X400245Y111319D01*
X400207Y111379D01*
X400166Y111438D01*
X400122Y111494D01*
X400075Y111548D01*
X400026Y111599D01*
X399973Y111647D01*
X399918Y111693D01*
X399861Y111735D01*
X399801Y111775D01*
X399740Y111811D01*
X399676Y111844D01*
X399611Y111873D01*
X399545Y111899D01*
X399477Y111922D01*
X399408Y111941D01*
X399338Y111956D01*
X399268Y111967D01*
X399197Y111975D01*
X399126Y111979D01*
X399054Y111979D01*
X398983Y111975D01*
X398912Y111967D01*
X398842Y111956D01*
X398772Y111941D01*
X398703Y111922D01*
X398635Y111899D01*
X398569Y111873D01*
X398504Y111844D01*
X398440Y111811D01*
X398379Y111775D01*
X398319Y111735D01*
X398262Y111693D01*
X398207Y111647D01*
X398154Y111599D01*
X398105Y111548D01*
X398058Y111494D01*
X398014Y111438D01*
X397973Y111379D01*
X397935Y111319D01*
X397900Y111256D01*
X397869Y111192D01*
X397841Y111126D01*
X397817Y111059D01*
X397796Y110991D01*
X397779Y110921D01*
X397766Y110851D01*
X397757Y110781D01*
X397751Y110709D01*
X397749Y110638D01*
X397750Y110638D02*
X397750Y109297D01*
X397750Y110906D02*
X395605Y111978D01*
X395069Y114439D02*
X395069Y116584D01*
X398286Y119438D02*
X398286Y120779D01*
X398287Y120779D02*
X398285Y120850D01*
X398279Y120922D01*
X398270Y120992D01*
X398257Y121062D01*
X398240Y121132D01*
X398219Y121200D01*
X398195Y121267D01*
X398167Y121333D01*
X398136Y121397D01*
X398101Y121460D01*
X398063Y121520D01*
X398022Y121579D01*
X397978Y121635D01*
X397931Y121689D01*
X397882Y121740D01*
X397829Y121788D01*
X397774Y121834D01*
X397717Y121876D01*
X397657Y121916D01*
X397596Y121952D01*
X397532Y121985D01*
X397467Y122014D01*
X397401Y122040D01*
X397333Y122063D01*
X397264Y122082D01*
X397194Y122097D01*
X397124Y122108D01*
X397053Y122116D01*
X396982Y122120D01*
X396910Y122120D01*
X396839Y122116D01*
X396768Y122108D01*
X396698Y122097D01*
X396628Y122082D01*
X396559Y122063D01*
X396491Y122040D01*
X396425Y122014D01*
X396360Y121985D01*
X396296Y121952D01*
X396235Y121916D01*
X396175Y121876D01*
X396118Y121834D01*
X396063Y121788D01*
X396010Y121740D01*
X395961Y121689D01*
X395914Y121635D01*
X395870Y121579D01*
X395829Y121520D01*
X395791Y121460D01*
X395756Y121397D01*
X395725Y121333D01*
X395697Y121267D01*
X395673Y121200D01*
X395652Y121132D01*
X395635Y121062D01*
X395622Y120992D01*
X395613Y120922D01*
X395607Y120850D01*
X395605Y120779D01*
X395605Y119438D01*
X400431Y119438D01*
X400431Y120779D01*
X400429Y120844D01*
X400423Y120908D01*
X400413Y120972D01*
X400400Y121036D01*
X400382Y121098D01*
X400361Y121159D01*
X400337Y121219D01*
X400308Y121277D01*
X400276Y121334D01*
X400241Y121388D01*
X400203Y121440D01*
X400161Y121490D01*
X400117Y121537D01*
X400070Y121581D01*
X400020Y121623D01*
X399968Y121661D01*
X399914Y121696D01*
X399857Y121728D01*
X399799Y121757D01*
X399739Y121781D01*
X399678Y121802D01*
X399616Y121820D01*
X399552Y121833D01*
X399488Y121843D01*
X399424Y121849D01*
X399359Y121851D01*
X399294Y121849D01*
X399230Y121843D01*
X399166Y121833D01*
X399102Y121820D01*
X399040Y121802D01*
X398979Y121781D01*
X398919Y121757D01*
X398861Y121728D01*
X398804Y121696D01*
X398750Y121661D01*
X398698Y121623D01*
X398648Y121581D01*
X398601Y121537D01*
X398557Y121490D01*
X398515Y121440D01*
X398477Y121388D01*
X398442Y121334D01*
X398410Y121277D01*
X398381Y121219D01*
X398357Y121159D01*
X398336Y121098D01*
X398318Y121036D01*
X398305Y120972D01*
X398295Y120908D01*
X398289Y120844D01*
X398287Y120779D01*
X399090Y124595D02*
X396946Y124595D01*
X399090Y124595D02*
X399161Y124597D01*
X399233Y124603D01*
X399303Y124612D01*
X399373Y124625D01*
X399443Y124642D01*
X399511Y124663D01*
X399578Y124687D01*
X399644Y124715D01*
X399708Y124746D01*
X399771Y124781D01*
X399831Y124819D01*
X399890Y124860D01*
X399946Y124904D01*
X400000Y124951D01*
X400051Y125000D01*
X400099Y125053D01*
X400145Y125108D01*
X400187Y125165D01*
X400227Y125225D01*
X400263Y125286D01*
X400296Y125350D01*
X400325Y125415D01*
X400351Y125481D01*
X400374Y125549D01*
X400393Y125618D01*
X400408Y125688D01*
X400419Y125758D01*
X400427Y125829D01*
X400431Y125900D01*
X400431Y125972D01*
X400427Y126043D01*
X400419Y126114D01*
X400408Y126184D01*
X400393Y126254D01*
X400374Y126323D01*
X400351Y126391D01*
X400325Y126457D01*
X400296Y126522D01*
X400263Y126586D01*
X400227Y126647D01*
X400187Y126707D01*
X400145Y126764D01*
X400099Y126819D01*
X400051Y126872D01*
X400000Y126921D01*
X399946Y126968D01*
X399890Y127012D01*
X399831Y127053D01*
X399771Y127091D01*
X399708Y127126D01*
X399644Y127157D01*
X399578Y127185D01*
X399511Y127209D01*
X399443Y127230D01*
X399373Y127247D01*
X399303Y127260D01*
X399233Y127269D01*
X399161Y127275D01*
X399090Y127277D01*
X399090Y127276D02*
X396946Y127276D01*
X396946Y127277D02*
X396875Y127275D01*
X396803Y127269D01*
X396733Y127260D01*
X396663Y127247D01*
X396593Y127230D01*
X396525Y127209D01*
X396458Y127185D01*
X396392Y127157D01*
X396328Y127126D01*
X396265Y127091D01*
X396205Y127053D01*
X396146Y127012D01*
X396090Y126968D01*
X396036Y126921D01*
X395985Y126872D01*
X395937Y126819D01*
X395891Y126764D01*
X395849Y126707D01*
X395809Y126647D01*
X395773Y126586D01*
X395740Y126522D01*
X395711Y126457D01*
X395685Y126391D01*
X395662Y126323D01*
X395643Y126254D01*
X395628Y126184D01*
X395617Y126114D01*
X395609Y126043D01*
X395605Y125972D01*
X395605Y125900D01*
X395609Y125829D01*
X395617Y125758D01*
X395628Y125688D01*
X395643Y125618D01*
X395662Y125549D01*
X395685Y125481D01*
X395711Y125415D01*
X395740Y125350D01*
X395773Y125286D01*
X395809Y125225D01*
X395849Y125165D01*
X395891Y125108D01*
X395937Y125053D01*
X395985Y125000D01*
X396036Y124951D01*
X396090Y124904D01*
X396146Y124860D01*
X396205Y124819D01*
X396265Y124781D01*
X396328Y124746D01*
X396392Y124715D01*
X396458Y124687D01*
X396525Y124663D01*
X396593Y124642D01*
X396663Y124625D01*
X396733Y124612D01*
X396803Y124603D01*
X396875Y124597D01*
X396946Y124595D01*
X395605Y129813D02*
X400431Y131422D01*
X395605Y133031D01*
X396812Y132629D02*
X396812Y130216D01*
X395605Y135814D02*
X400431Y135814D01*
X400431Y137155D01*
X400429Y137226D01*
X400423Y137298D01*
X400414Y137368D01*
X400401Y137438D01*
X400384Y137508D01*
X400363Y137576D01*
X400339Y137643D01*
X400311Y137709D01*
X400280Y137773D01*
X400245Y137836D01*
X400207Y137896D01*
X400166Y137955D01*
X400122Y138011D01*
X400075Y138065D01*
X400026Y138116D01*
X399973Y138164D01*
X399918Y138210D01*
X399861Y138252D01*
X399801Y138292D01*
X399740Y138328D01*
X399676Y138361D01*
X399611Y138390D01*
X399545Y138416D01*
X399477Y138439D01*
X399408Y138458D01*
X399338Y138473D01*
X399268Y138484D01*
X399197Y138492D01*
X399126Y138496D01*
X399054Y138496D01*
X398983Y138492D01*
X398912Y138484D01*
X398842Y138473D01*
X398772Y138458D01*
X398703Y138439D01*
X398635Y138416D01*
X398569Y138390D01*
X398504Y138361D01*
X398440Y138328D01*
X398379Y138292D01*
X398319Y138252D01*
X398262Y138210D01*
X398207Y138164D01*
X398154Y138116D01*
X398105Y138065D01*
X398058Y138011D01*
X398014Y137955D01*
X397973Y137896D01*
X397935Y137836D01*
X397900Y137773D01*
X397869Y137709D01*
X397841Y137643D01*
X397817Y137576D01*
X397796Y137508D01*
X397779Y137438D01*
X397766Y137368D01*
X397757Y137298D01*
X397751Y137226D01*
X397749Y137155D01*
X397750Y137155D02*
X397750Y135814D01*
X397750Y137423D02*
X395605Y138496D01*
X395605Y141420D02*
X400431Y141420D01*
X400431Y142761D01*
X400429Y142831D01*
X400424Y142901D01*
X400414Y142971D01*
X400402Y143040D01*
X400385Y143108D01*
X400365Y143175D01*
X400342Y143242D01*
X400315Y143306D01*
X400285Y143370D01*
X400251Y143432D01*
X400215Y143491D01*
X400175Y143549D01*
X400132Y143605D01*
X400087Y143658D01*
X400038Y143709D01*
X399987Y143758D01*
X399934Y143803D01*
X399878Y143846D01*
X399820Y143886D01*
X399761Y143922D01*
X399699Y143956D01*
X399635Y143986D01*
X399571Y144013D01*
X399504Y144036D01*
X399437Y144056D01*
X399369Y144073D01*
X399300Y144085D01*
X399230Y144095D01*
X399160Y144100D01*
X399090Y144102D01*
X399090Y144101D02*
X396946Y144101D01*
X396946Y144102D02*
X396876Y144100D01*
X396806Y144095D01*
X396736Y144085D01*
X396667Y144073D01*
X396599Y144056D01*
X396532Y144036D01*
X396465Y144013D01*
X396401Y143986D01*
X396337Y143956D01*
X396276Y143922D01*
X396216Y143886D01*
X396158Y143846D01*
X396102Y143803D01*
X396049Y143758D01*
X395998Y143709D01*
X395949Y143658D01*
X395904Y143605D01*
X395861Y143549D01*
X395821Y143491D01*
X395785Y143432D01*
X395751Y143370D01*
X395721Y143306D01*
X395694Y143242D01*
X395671Y143175D01*
X395651Y143108D01*
X395634Y143040D01*
X395622Y142971D01*
X395612Y142901D01*
X395607Y142831D01*
X395605Y142761D01*
X395605Y141420D01*
M02*
