G04 EAGLE Gerber RS-274X export*
G75*
%MOMM*%
%FSLAX34Y34*%
%LPD*%
%INBottom Copper*%
%IPPOS*%
%AMOC8*
5,1,8,0,0,1.08239X$1,22.5*%
G01*
%ADD10C,1.879600*%
%ADD11R,1.879600X1.879600*%
%ADD12C,1.206400*%
%ADD13C,0.304800*%


D10*
X495300Y241300D03*
X469900Y241300D03*
X444500Y241300D03*
X368300Y406400D03*
X393700Y406400D03*
X368300Y381000D03*
X393700Y381000D03*
X38100Y63500D03*
X38100Y88900D03*
X38100Y114300D03*
X38100Y139700D03*
X38100Y165100D03*
X38100Y190500D03*
X38100Y215900D03*
X190500Y63500D03*
X190500Y88900D03*
X190500Y114300D03*
X190500Y139700D03*
X190500Y165100D03*
X190500Y190500D03*
X190500Y215900D03*
X254000Y304800D03*
X177800Y304800D03*
X177800Y279400D03*
X254000Y279400D03*
X177800Y330200D03*
X254000Y330200D03*
X38100Y342900D03*
X38100Y419100D03*
X63500Y342900D03*
X63500Y419100D03*
X50800Y279400D03*
X50800Y304800D03*
X127000Y279400D03*
X127000Y304800D03*
X254000Y355600D03*
X177800Y355600D03*
X254000Y381000D03*
X177800Y381000D03*
X254000Y406400D03*
X177800Y406400D03*
X101600Y355600D03*
X114300Y374650D03*
X127000Y355600D03*
X114300Y419100D03*
X127000Y438150D03*
X139700Y419100D03*
D11*
X368300Y317500D03*
D10*
X342900Y317500D03*
X317500Y317500D03*
X381000Y88900D03*
X381000Y114300D03*
X381000Y139700D03*
X381000Y165100D03*
X381000Y190500D03*
X393700Y355600D03*
X368300Y355600D03*
X292100Y406400D03*
X292100Y381000D03*
X292100Y355600D03*
X508000Y279400D03*
X482600Y279400D03*
X457200Y279400D03*
X431800Y279400D03*
X317500Y355600D03*
X317500Y381000D03*
X317500Y406400D03*
X381000Y279400D03*
X304800Y279400D03*
D12*
X38100Y241300D03*
X152400Y304800D03*
D13*
X148193Y304800D01*
X133207Y319786D01*
X116586Y319786D02*
X38100Y241300D01*
X116586Y319786D02*
X133207Y319786D01*
D12*
X254000Y433006D03*
D13*
X266700Y445706D01*
X341694Y445706D01*
X355600Y431800D01*
D12*
X355600Y431800D03*
X329418Y339949D03*
D13*
X286558Y339949D01*
X277114Y349393D01*
X277114Y404479D01*
D12*
X203200Y423355D03*
D13*
X247218Y423355D01*
X249187Y421386D01*
X260207Y421386D02*
X277114Y404479D01*
X260207Y421386D02*
X249187Y421386D01*
D12*
X152400Y320928D03*
X381000Y431800D03*
D13*
X142875Y392668D02*
X142875Y376187D01*
X142875Y392668D02*
X207533Y457326D01*
X346507Y457326D01*
X152400Y366662D02*
X152400Y320928D01*
X152400Y366662D02*
X142875Y376187D01*
X372033Y431800D02*
X381000Y431800D01*
X372033Y431800D02*
X346507Y457326D01*
D12*
X88900Y419100D03*
D13*
X114300Y393700D01*
D12*
X114300Y393700D03*
X419100Y254000D03*
X419100Y406400D03*
D13*
X419100Y397433D01*
X289814Y292100D02*
X289814Y273193D01*
X289814Y292100D02*
X289814Y294386D01*
X366014Y82693D02*
X374793Y73914D01*
X366014Y196993D02*
X289814Y273193D01*
X366014Y196993D02*
X366014Y82693D01*
X399907Y73914D02*
X419100Y93107D01*
X419100Y254000D01*
X399907Y73914D02*
X374793Y73914D01*
X419100Y254000D02*
X429514Y264414D01*
X514207Y264414D02*
X522986Y273193D01*
X514207Y264414D02*
X429514Y264414D01*
X522986Y273193D02*
X522986Y293547D01*
X419100Y397433D01*
X289814Y292100D02*
X279400Y302514D01*
X279400Y330200D01*
D12*
X279400Y330200D03*
X287845Y431800D03*
X340805Y351370D03*
D13*
X298259Y421386D02*
X287845Y431800D01*
X298259Y421386D02*
X323707Y421386D01*
X340805Y404288D01*
X340805Y351370D01*
D12*
X381000Y215900D03*
X391833Y328333D03*
D13*
X383286Y319786D02*
X383286Y305787D01*
X383286Y319786D02*
X391833Y328333D01*
X381000Y258207D02*
X381000Y215900D01*
X381000Y258207D02*
X366014Y273193D01*
X366014Y288515D01*
X383286Y305787D01*
D12*
X394784Y265616D03*
X339472Y431495D03*
D13*
X396647Y339953D02*
X403453Y333147D01*
X339472Y415679D02*
X339472Y431495D01*
X394784Y271991D02*
X394784Y265616D01*
X394784Y271991D02*
X403453Y280660D01*
X403453Y333147D01*
X352425Y402726D02*
X339472Y415679D01*
X362753Y339953D02*
X396647Y339953D01*
X362753Y339953D02*
X352425Y350282D01*
X352425Y402726D01*
M02*
