G04 EAGLE Gerber RS-274X export*
G75*
%MOMM*%
%FSLAX34Y34*%
%LPD*%
%INTop Copper*%
%IPPOS*%
%AMOC8*
5,1,8,0,0,1.08239X$1,22.5*%
G01*
%ADD10C,0.000000*%
%ADD11C,1.879600*%
%ADD12R,1.879600X1.879600*%
%ADD13C,0.304800*%
%ADD14C,0.756400*%


D10*
X0Y0D02*
X508000Y0D01*
X508000Y444500D01*
X0Y444500D01*
X0Y0D01*
D11*
X469900Y228600D03*
X444500Y228600D03*
X419100Y228600D03*
X342900Y393700D03*
X368300Y393700D03*
X342900Y368300D03*
X368300Y368300D03*
X25400Y50800D03*
X25400Y76200D03*
X25400Y101600D03*
X25400Y127000D03*
X25400Y152400D03*
X25400Y177800D03*
X25400Y203200D03*
X177800Y50800D03*
X177800Y76200D03*
X177800Y101600D03*
X177800Y127000D03*
X177800Y152400D03*
X177800Y177800D03*
X177800Y203200D03*
X241300Y292100D03*
X165100Y292100D03*
X165100Y266700D03*
X241300Y266700D03*
X165100Y317500D03*
X241300Y317500D03*
X25400Y330200D03*
X25400Y406400D03*
X50800Y330200D03*
X50800Y406400D03*
X38100Y266700D03*
X38100Y292100D03*
X114300Y266700D03*
X114300Y292100D03*
X241300Y342900D03*
X165100Y342900D03*
X241300Y368300D03*
X165100Y368300D03*
X241300Y393700D03*
X165100Y393700D03*
X101600Y342900D03*
X114300Y361950D03*
X127000Y342900D03*
X101600Y406400D03*
X114300Y425450D03*
X127000Y406400D03*
D12*
X355600Y304800D03*
D11*
X330200Y304800D03*
X304800Y304800D03*
X368300Y76200D03*
X368300Y101600D03*
X368300Y127000D03*
X368300Y152400D03*
X368300Y177800D03*
X368300Y342900D03*
X342900Y342900D03*
X279400Y393700D03*
X279400Y368300D03*
X279400Y342900D03*
X482600Y266700D03*
X457200Y266700D03*
X431800Y266700D03*
X406400Y266700D03*
X304800Y342900D03*
X304800Y368300D03*
X304800Y393700D03*
X368300Y266700D03*
X292100Y266700D03*
D13*
X73025Y250825D02*
X25400Y203200D01*
X73025Y250825D02*
X123825Y250825D01*
X165100Y292100D01*
X190500Y266700D02*
X25400Y101600D01*
X190500Y266700D02*
X241300Y266700D01*
X50800Y406400D02*
X25400Y406400D01*
X279400Y368300D02*
X304800Y393700D01*
X177800Y177800D02*
X254000Y101600D01*
X368300Y101600D01*
X428625Y282575D02*
X384175Y327025D01*
X368300Y342900D01*
X428625Y282575D02*
X441325Y282575D01*
X457200Y266700D01*
X327025Y371475D02*
X304800Y393700D01*
X327025Y371475D02*
X327025Y327025D01*
X384175Y327025D01*
X241300Y342900D02*
X241300Y368300D01*
X241300Y393700D01*
X257175Y409575D01*
X311150Y409575D01*
X327025Y393700D01*
X327025Y381000D01*
X330200Y381000D01*
X342900Y368300D01*
X165100Y368300D02*
X165100Y342900D01*
X165100Y368300D02*
X165100Y393700D01*
X314325Y320675D02*
X330200Y304800D01*
X314325Y320675D02*
X263525Y320675D01*
X254000Y330200D01*
D14*
X254000Y330200D03*
D13*
X342900Y393700D02*
X368300Y368300D01*
X152400Y317500D02*
X127000Y342900D01*
X152400Y317500D02*
X165100Y317500D01*
X127000Y371475D02*
X127000Y406400D01*
X127000Y371475D02*
X130175Y368300D01*
X130175Y342900D01*
X127000Y342900D01*
X320675Y415925D02*
X342900Y393700D01*
X320675Y415925D02*
X136525Y415925D01*
X127000Y406400D01*
X190500Y292100D02*
X165100Y266700D01*
X190500Y292100D02*
X241300Y292100D01*
X241300Y317500D02*
X276225Y282575D01*
X317500Y282575D01*
X371475Y228600D01*
X419100Y228600D01*
X88900Y292100D02*
X50800Y330200D01*
X88900Y292100D02*
X114300Y292100D01*
X288925Y327025D02*
X304800Y342900D01*
X288925Y327025D02*
X273050Y327025D01*
X263525Y336550D01*
X263525Y393700D01*
X279400Y393700D01*
X384175Y282575D02*
X368300Y266700D01*
X384175Y282575D02*
X415925Y282575D01*
X431800Y266700D01*
X469900Y228600D01*
X342900Y266700D02*
X304800Y304800D01*
X342900Y266700D02*
X368300Y266700D01*
X225425Y250825D02*
X177800Y203200D01*
X225425Y250825D02*
X276225Y250825D01*
X292100Y266700D01*
M02*
