G04 EAGLE Gerber RS-274X export*
G75*
%MOMM*%
%FSLAX34Y34*%
%LPD*%
%INBottom Copper*%
%IPPOS*%
%AMOC8*
5,1,8,0,0,1.08239X$1,22.5*%
G01*
%ADD10C,1.879600*%
%ADD11R,1.879600X1.879600*%
%ADD12C,0.304800*%
%ADD13C,0.756400*%


D10*
X469900Y228600D03*
X444500Y228600D03*
X419100Y228600D03*
X342900Y393700D03*
X368300Y393700D03*
X342900Y368300D03*
X368300Y368300D03*
X25400Y50800D03*
X25400Y76200D03*
X25400Y101600D03*
X25400Y127000D03*
X25400Y152400D03*
X25400Y177800D03*
X25400Y203200D03*
X177800Y50800D03*
X177800Y76200D03*
X177800Y101600D03*
X177800Y127000D03*
X177800Y152400D03*
X177800Y177800D03*
X177800Y203200D03*
X241300Y292100D03*
X165100Y292100D03*
X165100Y266700D03*
X241300Y266700D03*
X165100Y317500D03*
X241300Y317500D03*
X25400Y330200D03*
X25400Y406400D03*
X50800Y330200D03*
X50800Y406400D03*
X38100Y266700D03*
X38100Y292100D03*
X114300Y266700D03*
X114300Y292100D03*
X241300Y342900D03*
X165100Y342900D03*
X241300Y368300D03*
X165100Y368300D03*
X241300Y393700D03*
X165100Y393700D03*
X101600Y342900D03*
X114300Y361950D03*
X127000Y342900D03*
X101600Y406400D03*
X114300Y425450D03*
X127000Y406400D03*
D11*
X355600Y304800D03*
D10*
X330200Y304800D03*
X304800Y304800D03*
X368300Y76200D03*
X368300Y101600D03*
X368300Y127000D03*
X368300Y152400D03*
X368300Y177800D03*
X368300Y342900D03*
X342900Y342900D03*
X279400Y393700D03*
X279400Y368300D03*
X279400Y342900D03*
X482600Y266700D03*
X457200Y266700D03*
X431800Y266700D03*
X406400Y266700D03*
X304800Y342900D03*
X304800Y368300D03*
X304800Y393700D03*
X368300Y266700D03*
X292100Y266700D03*
D12*
X114300Y215900D02*
X25400Y127000D01*
X114300Y215900D02*
X114300Y266700D01*
X69850Y374650D02*
X50800Y393700D01*
X69850Y374650D02*
X101600Y342900D01*
X50800Y393700D02*
X50800Y406400D01*
X69850Y374650D02*
X101600Y406400D01*
X368300Y101600D02*
X444500Y177800D01*
X444500Y228600D01*
X444500Y254000D02*
X457200Y266700D01*
X444500Y254000D02*
X444500Y228600D01*
X142875Y301625D02*
X101600Y342900D01*
X142875Y301625D02*
X142875Y212725D01*
X177800Y177800D01*
X327025Y333375D02*
X355600Y304800D01*
X327025Y333375D02*
X327025Y352425D01*
X342900Y368300D01*
X257175Y333375D02*
X254000Y330200D01*
X257175Y333375D02*
X257175Y400050D01*
X247650Y409575D01*
X165100Y409575D01*
X165100Y393700D01*
D13*
X254000Y330200D03*
D12*
X149225Y361950D02*
X142875Y361950D01*
X114300Y361950D01*
X149225Y361950D02*
X149225Y282575D01*
X165100Y266700D01*
X142875Y425450D02*
X114300Y425450D01*
X142875Y425450D02*
X142875Y361950D01*
X368300Y393700D02*
X390525Y371475D01*
X390525Y257175D01*
X419100Y228600D01*
X38100Y292100D02*
X25400Y304800D01*
X25400Y330200D01*
X41275Y193675D02*
X25400Y177800D01*
X41275Y193675D02*
X41275Y263525D01*
X38100Y266700D01*
X177800Y152400D02*
X263525Y238125D01*
X263525Y377825D01*
X279400Y393700D01*
X161925Y76200D02*
X25400Y76200D01*
X161925Y76200D02*
X161925Y44450D01*
X171450Y34925D01*
X276225Y34925D01*
X276225Y339725D01*
X279400Y342900D01*
X384175Y193675D02*
X368300Y177800D01*
X384175Y193675D02*
X384175Y301625D01*
X342900Y342900D01*
X304800Y368300D02*
X327025Y390525D01*
X327025Y400050D01*
X336550Y409575D01*
X406400Y409575D01*
X406400Y266700D01*
X485775Y193675D02*
X368300Y76200D01*
X485775Y193675D02*
X485775Y263525D01*
X482600Y266700D01*
M02*
