G04 EAGLE Gerber RS-274X export*
G75*
%MOMM*%
%FSLAX34Y34*%
%LPD*%
%INTop Soldermask*%
%IPPOS*%
%AMOC8*
5,1,8,0,0,1.08239X$1,22.5*%
G01*
%ADD10C,2.082800*%
%ADD11R,2.082800X2.082800*%
%ADD12C,0.959600*%


D10*
X469900Y228600D03*
X444500Y228600D03*
X419100Y228600D03*
X342900Y393700D03*
X368300Y393700D03*
X342900Y368300D03*
X368300Y368300D03*
X25400Y50800D03*
X25400Y76200D03*
X25400Y101600D03*
X25400Y127000D03*
X25400Y152400D03*
X25400Y177800D03*
X25400Y203200D03*
X177800Y50800D03*
X177800Y76200D03*
X177800Y101600D03*
X177800Y127000D03*
X177800Y152400D03*
X177800Y177800D03*
X177800Y203200D03*
X241300Y292100D03*
X165100Y292100D03*
X165100Y266700D03*
X241300Y266700D03*
X165100Y317500D03*
X241300Y317500D03*
X25400Y330200D03*
X25400Y406400D03*
X50800Y330200D03*
X50800Y406400D03*
X38100Y266700D03*
X38100Y292100D03*
X114300Y266700D03*
X114300Y292100D03*
X241300Y342900D03*
X165100Y342900D03*
X241300Y368300D03*
X165100Y368300D03*
X241300Y393700D03*
X165100Y393700D03*
X101600Y342900D03*
X114300Y361950D03*
X127000Y342900D03*
X101600Y406400D03*
X114300Y425450D03*
X127000Y406400D03*
D11*
X355600Y304800D03*
D10*
X330200Y304800D03*
X304800Y304800D03*
X368300Y76200D03*
X368300Y101600D03*
X368300Y127000D03*
X368300Y152400D03*
X368300Y177800D03*
X368300Y342900D03*
X342900Y342900D03*
X279400Y393700D03*
X279400Y368300D03*
X279400Y342900D03*
X482600Y266700D03*
X457200Y266700D03*
X431800Y266700D03*
X406400Y266700D03*
X304800Y342900D03*
X304800Y368300D03*
X304800Y393700D03*
X368300Y266700D03*
X292100Y266700D03*
D12*
X254000Y330200D03*
M02*
