M48
;GenerationSoftware,Autodesk,EAGLE,9.6.2*%
;CreationDate,2022-11-19T23:11:33Z*%
FMAT,2
ICI,OFF
METRIC,TZ,000.000
T5C0.350
T4C0.813
T3C0.900
T2C1.000
T1C1.016
%
G90
M71
T1
X2540Y5080
X46990Y22860
X44450Y22860
X41910Y22860
X34290Y39370
X36830Y39370
X34290Y36830
X36830Y36830
X17780Y7620
X2540Y7620
X2540Y10160
X2540Y12700
X2540Y15240
X2540Y17780
X2540Y20320
X17780Y5080
X36830Y12700
X17780Y10160
X17780Y12700
X17780Y15240
X17780Y17780
X17780Y20320
X36830Y15240
X36830Y17780
X36830Y34290
X34290Y34290
X27940Y39370
X27940Y36830
X27940Y34290
X45720Y26670
X43180Y26670
X40640Y26670
X30480Y34290
X30480Y36830
X30480Y39370
X48260Y26670
X36830Y7620
X36830Y10160
T2
X35560Y30480
X33020Y30480
X30480Y30480
T3
X24130Y29210
X16510Y29210
X16510Y26670
X24130Y26670
X16510Y31750
X24130Y31750
X2540Y33020
X2540Y40640
X5080Y33020
X5080Y40640
X16510Y34290
X24130Y36830
X16510Y36830
X24130Y39370
X16510Y39370
X24130Y34290
X36830Y26670
X29210Y26670
T4
X3810Y26670
X3810Y29210
X11430Y26670
X10160Y34290
X11430Y36195
X12700Y34290
X10160Y40640
X11430Y29210
X11430Y42545
X12700Y40640
T5
X25400Y33020
M30