M48
;GenerationSoftware,Autodesk,EAGLE,9.6.2*%
;CreationDate,2022-11-21T03:46:23Z*%
FMAT,2
ICI,OFF
METRIC,TZ,000.000
T5C0.800
T4C0.813
T3C0.900
T2C1.000
T1C1.016
%
G90
M71
T1
X36830Y40640
X31750Y35560
X43180Y27940
X45720Y27940
X48260Y27940
X50800Y27940
X29210Y35560
X29210Y38100
X36830Y35560
X39370Y35560
X38100Y19050
X19050Y21590
X38100Y16510
X38100Y13970
X38100Y11430
X38100Y8890
X19050Y19050
X31750Y38100
X31750Y40640
X49530Y24130
X46990Y24130
X44450Y24130
X29210Y40640
X39370Y40640
X36830Y38100
X39370Y38100
X3810Y6350
X3810Y8890
X3810Y11430
X3810Y13970
X3810Y16510
X3810Y19050
X3810Y21590
X19050Y6350
X19050Y8890
X19050Y11430
X19050Y13970
X19050Y16510
T2
X31750Y31750
X34290Y31750
X36830Y31750
T3
X17780Y30480
X17780Y27940
X25400Y27940
X30480Y27940
X25400Y33020
X3810Y34290
X3810Y41910
X6350Y34290
X6350Y41910
X25400Y35560
X17780Y35560
X25400Y38100
X17780Y38100
X25400Y40640
X17780Y40640
X17780Y33020
X25400Y30480
X38100Y27940
T4
X5080Y30480
X10160Y35560
X11430Y37465
X12700Y35560
X11430Y41910
X12700Y43815
X12700Y27940
X12700Y30480
X5080Y27940
X13970Y41910
T5
X41910Y40640
X33947Y43149
X39478Y26562
X39183Y32833
X38100Y21590
X34081Y35137
X28784Y43180
X27940Y33020
X41910Y25400
X11430Y39370
X8890Y41910
X3810Y24130
X38100Y43180
X15240Y32093
X20320Y42336
X32942Y33995
X35560Y43180
X25400Y43301
X15240Y30480
M30